<svg aria-hidden="true" style="position: absolute; width: 0; height: 0; overflow: hidden;" version="1.1" xmlns="http://www.w3.org/2000/svg" xmlns:xlink="http://www.w3.org/1999/xlink">
<defs>
<symbol id="icon-spinner" viewBox="0 0 32 32">
<path d="M32 16c-0.040-2.089-0.493-4.172-1.331-6.077-0.834-1.906-2.046-3.633-3.533-5.060-1.486-1.428-3.248-2.557-5.156-3.302-1.906-0.748-3.956-1.105-5.981-1.061-2.025 0.040-4.042 0.48-5.885 1.292-1.845 0.809-3.517 1.983-4.898 3.424s-2.474 3.147-3.193 4.994c-0.722 1.846-1.067 3.829-1.023 5.79 0.040 1.961 0.468 3.911 1.254 5.694 0.784 1.784 1.921 3.401 3.316 4.736 1.394 1.336 3.046 2.391 4.832 3.085 1.785 0.697 3.701 1.028 5.598 0.985 1.897-0.040 3.78-0.455 5.502-1.216 1.723-0.759 3.285-1.859 4.574-3.208 1.29-1.348 2.308-2.945 2.977-4.67 0.407-1.046 0.684-2.137 0.829-3.244 0.039 0.002 0.078 0.004 0.118 0.004 1.105 0 2-0.895 2-2 0-0.056-0.003-0.112-0.007-0.167h0.007zM28.822 21.311c-0.733 1.663-1.796 3.169-3.099 4.412s-2.844 2.225-4.508 2.868c-1.663 0.646-3.447 0.952-5.215 0.909-1.769-0.041-3.519-0.429-5.119-1.14-1.602-0.708-3.053-1.734-4.25-2.991s-2.141-2.743-2.76-4.346c-0.621-1.603-0.913-3.319-0.871-5.024 0.041-1.705 0.417-3.388 1.102-4.928 0.683-1.541 1.672-2.937 2.883-4.088s2.642-2.058 4.184-2.652c1.542-0.596 3.192-0.875 4.832-0.833 1.641 0.041 3.257 0.404 4.736 1.064 1.48 0.658 2.82 1.609 3.926 2.774s1.975 2.54 2.543 4.021c0.57 1.481 0.837 3.064 0.794 4.641h0.007c-0.005 0.055-0.007 0.11-0.007 0.167 0 1.032 0.781 1.88 1.784 1.988-0.195 1.088-0.517 2.151-0.962 3.156z"></path>
</symbol>
<symbol id="icon-moon" viewBox="0 0 32 32">
<path d="M10.895 7.574c0 7.55 5.179 13.67 11.567 13.67 1.588 0 3.101-0.38 4.479-1.063-1.695 4.46-5.996 7.636-11.051 7.636-6.533 0-11.83-5.297-11.83-11.83 0-4.82 2.888-8.959 7.023-10.803-0.116 0.778-0.188 1.573-0.188 2.39z"></path>
</symbol>
<symbol id="icon-search" viewBox="0 0 18 18">
<path d="M7.012 3c2.193 0 3.977 1.794 3.977 4 0 0.831-0.255 1.63-0.737 2.312l-0.392 0.553-0.55 0.393c-0.678 0.485-1.473 0.742-2.298 0.742-2.193 0-3.977-1.794-3.977-4s1.784-4 3.977-4zM7.012 1c-3.295 0-5.966 2.686-5.966 6s2.671 6 5.966 6c1.288 0 2.477-0.414 3.451-1.112l4.791 4.819c0.195 0.196 0.45 0.293 0.705 0.293s0.51-0.098 0.704-0.293c0.389-0.391 0.389-1.025 0-1.416l-4.791-4.819c0.694-0.98 1.105-2.177 1.105-3.471 0-3.314-2.671-6-5.965-6v0z"></path>
</symbol>
<symbol id="icon-sun" viewBox="0 0 18 18">
<path d="M9.587 6.056c-0.199-0.038-0.396-0.056-0.587-0.056-1.851 0-3.31 1.672-2.947 3.587 0.223 1.174 1.184 2.135 2.359 2.357 0.199 0.038 0.395 0.056 0.587 0.056 1.851 0 3.31-1.672 2.947-3.587-0.223-1.174-1.184-2.135-2.359-2.357zM9.771 9.637c-0.191 0.231-0.473 0.363-0.772 0.363-0.070 0-0.143-0.007-0.215-0.021-0.367-0.069-0.695-0.398-0.765-0.764-0.077-0.404 0.071-0.687 0.208-0.852 0.191-0.231 0.473-0.363 0.772-0.363 0.070 0 0.142 0.007 0.215 0.021 0.367 0.069 0.696 0.398 0.765 0.764 0.077 0.404-0.071 0.687-0.208 0.852z"></path>
<path d="M17.011 10h-2.009c-0.551 0-0.997-0.446-0.997-0.996v-0.007c0-0.55 0.446-0.996 0.997-0.996h2.009c0.551 0 0.997 0.446 0.997 0.996v0.007c0 0.55-0.446 0.996-0.997 0.996z"></path>
<path d="M9.004 14h-0.007c-0.551 0-0.997 0.446-0.997 0.996v2.007c0 0.55 0.446 0.996 0.997 0.996h0.007c0.551 0 0.997-0.446 0.997-0.996v-2.007c-0-0.55-0.446-0.996-0.997-0.996z"></path>
<path d="M8.996 4h0.007c0.551 0 0.997-0.446 0.997-0.996v-2.007c0-0.55-0.446-0.996-0.997-0.996h-0.007c-0.551 0-0.997 0.446-0.997 0.996v2.007c-0 0.55 0.446 0.996 0.997 0.996z"></path>
<path d="M3.996 9.004v-0.007c0-0.55-0.447-0.996-0.998-0.996h-2.009c-0.551 0-0.998 0.446-0.998 0.996v0.007c0 0.55 0.447 0.996 0.998 0.996h2.009c0.551 0 0.998-0.446 0.998-0.996z"></path>
<path d="M14.613 4.724l1.118-1.117c0.368-0.368 0.368-0.964 0-1.332s-0.965-0.368-1.333 0l-1.118 1.117c-0.368 0.368-0.368 0.964 0 1.332s0.965 0.368 1.333 0z"></path>
<path d="M3.603 2.276c-0.368-0.368-0.965-0.368-1.333 0s-0.368 0.964 0 1.332l1.118 1.117c0.368 0.368 0.964 0.368 1.333 0s0.368-0.964 0-1.332l-1.118-1.117z"></path>
<path d="M3.388 13.276l-1.118 1.117c-0.368 0.368-0.368 0.964 0 1.332s0.965 0.368 1.333 0l1.118-1.117c0.368-0.368 0.368-0.964 0-1.332s-0.965-0.368-1.333 0z"></path>
<path d="M14.613 13.276c-0.368-0.368-0.965-0.368-1.333 0s-0.368 0.964 0 1.332l1.118 1.117c0.368 0.368 0.964 0.368 1.333 0s0.368-0.964 0-1.332l-1.118-1.117z"></path>
</symbol>
</defs>
</svg>
